<svg width="519" height="128" viewBox="0 0 519 128" fill="none" xmlns="http://www.w3.org/2000/svg">
<g clip-path="url(#clip0_19_2)">
<path d="M62.2656 64L57.1328 43.4453L52 64H62.2656ZM16 112V91.4453H22.8438L36.5547 36.5781H29.7109V16H72.5547L91.4219 91.4453H98.2656V112H64V91.4453H69.1328L67.4219 84.5781H46.8438L45.1328 91.4453H50.2656V112H16ZM118.867 112L105.156 98.2891V29.7344L118.867 16H160L173.711 29.7344V50.2891H153.156V43.4453L146.289 36.5781H132.578L125.711 43.4453V84.5781L132.578 91.4453H146.289L153.156 84.5781V77.7344H173.711V98.2891L160 112H118.867ZM194.336 112L180.625 98.2891V29.7344L194.336 16H235.469L249.18 29.7344V50.2891H228.625V43.4453L221.758 36.5781H208.047L201.18 43.4453V84.5781L208.047 91.4453H221.758L228.625 84.5781V77.7344H249.18V98.2891L235.469 112H194.336ZM256.094 112V91.4453H262.938V36.5781H256.094V16H324.648V43.4453H304.094V36.5781H283.516V50.2891H310.938V70.8672H283.516V91.4453H304.094V84.5781H324.648V112H256.094ZM331.562 112V84.5781H352.117V88L355.562 91.4453H372.695L379.562 84.5781V77.7344L372.695 70.8672H345.273L331.562 57.1562V29.7344L345.273 16H376.117L379.562 19.4453V16H400.117V43.4453H379.562V40L376.117 36.5781H358.984L352.117 43.4453L358.984 50.2891H386.406L400.117 64V98.2891L386.406 112H355.562L352.117 108.578V112H331.562ZM407.031 112V84.5781H427.586V88L431.031 91.4453H448.164L455.031 84.5781V77.7344L448.164 70.8672H420.742L407.031 57.1562V29.7344L420.742 16H451.586L455.031 19.4453V16H475.586V43.4453H455.031V40L451.586 36.5781H434.453L427.586 43.4453L434.453 50.2891H461.875L475.586 64V98.2891L461.875 112H431.031L427.586 108.578V112H407.031Z" fill="#262626"/>
<path d="M482.5 112V91.4453H503.055V112H482.5Z" fill="#0284C7"/>
</g>
<defs>
<clipPath id="clip0_19_2">
<rect width="519" height="128" fill="white"/>
</clipPath>
</defs>
</svg>
